<?xml version="1.0" encoding="UTF-8"?>
<!DOCTYPE svg PUBLIC "-//W3C//DTD SVG 1.1//EN" "http://www.w3.org/Graphics/SVG/1.1/DTD/svg11.dtd">
<!-- Creator: CorelDRAW 2017 -->
<svg xmlns="http://www.w3.org/2000/svg" xml:space="preserve" width="76.1998mm" height="76.1998mm" version="1.1" style="shape-rendering:geometricPrecision; text-rendering:geometricPrecision; image-rendering:optimizeQuality; fill-rule:evenodd; clip-rule:evenodd"
viewBox="0 0 7619.98 7619.98"
 xmlns:xlink="http://www.w3.org/1999/xlink"
 xmlns:svg="http://www.w3.org/2000/svg"
 xmlns:inkscape="http://www.inkscape.org/namespaces/inkscape">
 <defs>
  <style type="text/css">
   <![CDATA[
    .str0 {stroke:#EC8000;stroke-width:67.31;stroke-linecap:round;stroke-linejoin:round;stroke-miterlimit:22.9256}
    .fil2 {fill:none}
    .fil8 {fill:white;fill-opacity:0.419608}
    .fil7 {fill:url(#id0)}
    .fil6 {fill:url(#id1)}
    .fil0 {fill:url(#id2)}
    .fil3 {fill:url(#id3)}
    .fil5 {fill:url(#id4)}
    .fil4 {fill:url(#id5)}
    .fil1 {fill:url(#id6);fill-opacity:0.749020}
   ]]>
  </style>
  <linearGradient id="id0" gradientUnits="userSpaceOnUse" x1="1266.44" y1="-7949.72" x2="2435.8" y2="-6493.22">
   <stop offset="0" style="stop-opacity:1; stop-color:white"/>
   <stop offset="1" style="stop-opacity:0; stop-color:white"/>
  </linearGradient>
  <linearGradient id="id1" gradientUnits="userSpaceOnUse" xlink:href="#id0" x1="1637.89" y1="1363.9" x2="2799.42" y2="2821.57">
  </linearGradient>
  <radialGradient id="id2" gradientUnits="userSpaceOnUse" gradientTransform="matrix(0.997339 -0 -0 1.61373 10 -2678)" cx="3809.99" cy="4363.45" r="3459.04" fx="3809.99" fy="4363.45">
   <stop offset="0" style="stop-opacity:1; stop-color:#FFC600"/>
   <stop offset="1" style="stop-opacity:1; stop-color:#FFA901"/>
  </radialGradient>
  <radialGradient id="id3" gradientUnits="userSpaceOnUse" gradientTransform="matrix(2.67541 1.97672 -2.15005 2.51545 1500 -16562)" cx="4910.36" cy="4523.83" r="210.51" fx="4910.36" fy="4523.83">
   <stop offset="0" style="stop-opacity:1; stop-color:#FF0101"/>
   <stop offset="1" style="stop-opacity:1; stop-color:#E80000"/>
  </radialGradient>
  <radialGradient id="id4" gradientUnits="userSpaceOnUse" gradientTransform="matrix(2.67549 1.97829 -2.15016 2.51749 476 -12466)" xlink:href="#id3" cx="3837.9" cy="3211.88" r="210.5" fx="3837.9" fy="3211.88">
  </radialGradient>
  <radialGradient id="id5" gradientUnits="userSpaceOnUse" gradientTransform="matrix(2.67546 1.9797 -2.1501 2.51924 -3211 -15951)" xlink:href="#id3" cx="5759.2" cy="2994.58" r="210.35" fx="5759.2" fy="2994.58">
  </radialGradient>
  <radialGradient id="id6" gradientUnits="userSpaceOnUse" gradientTransform="matrix(0.5375 1.04394 -1.02334 0.526895 5714 -2066)" cx="3743.22" cy="3892.16" r="2938.06" fx="3743.22" fy="3892.16">
   <stop offset="0" style="stop-opacity:1; stop-color:#FFC600"/>
   <stop offset="1" style="stop-opacity:1; stop-color:#F09F00"/>
  </radialGradient>
 </defs>
 <g id="Camada_x0020_1">
  <metadata id="CorelCorpID_0Corel-Layer"/>
  <path id="path2383" class="fil0 str0" d="M7268.47 3810c0,0.14 0,0.56 0,0.56 0,1909.73 -1548.74,3458.47 -3458.48,3458.47 -1909.73,0 -3458.47,-1548.74 -3458.47,-3458.47 0,0 0,-0.42 0,-0.42 0,-0.28 0,-0.7 0,-0.7 0,-1909.74 1548.74,-3458.48 3458.47,-3458.48 1909.74,0 3458.48,1548.74 3458.48,3458.48 0,0 0,0.42 0,0.42l0 0.14z"/>
  <path id="path2429" class="fil1" d="M471.28 3924.46c60.6,1794.17 1529.69,3229.57 3338.71,3229.57 1809.02,0 3278.11,-1435.4 3338.71,-3229.57 -2273.57,1862.84 -4500.69,1913.81 -6677.42,0z"/>
  <path id="path3193" class="fil2" d="M4812.73 4222.09c-39.77,5.16 -82.3,341.16 -111.55,367.59 -29.26,26.44 -383.68,49.4 -391.23,87.01 -7.56,37.61 314.64,176.1 331.67,210.53 17.02,34.42 -74.44,362.73 -39.34,380.82 35.11,18.08 277.08,-231.92 316.86,-237.08 39.78,-5.16 337.86,175.11 367.11,148.68 29.26,-26.44 -142.87,-320.3 -135.31,-357.92 7.56,-37.61 282.24,-254.66 265.21,-289.08 -17.03,-34.43 -364.9,34.77 -400.01,16.69 -35.11,-18.09 -163.63,-332.4 -203.41,-327.24"/>
  <path id="path3193_0" class="fil3" d="M3751.39 4304.04c-39.78,5.17 -82.3,341.16 -111.55,367.6 -29.26,26.43 -383.68,49.39 -391.24,87.01 -7.55,37.61 314.64,176.1 331.67,210.52 17.03,34.42 -74.44,362.74 -39.33,380.82 35.11,18.09 277.08,-231.91 316.86,-237.07 39.77,-5.16 337.85,175.11 367.11,148.67 29.25,-26.44 -142.87,-320.3 -135.31,-357.91 7.55,-37.62 283.06,-254.76 266.03,-289.18 -17.03,-34.42 -365.73,34.87 -400.83,16.78 -35.11,-18.08 -163.63,-332.4 -203.41,-327.24z"/>
  <path id="path3193_1" class="fil4" d="M4601.47 2774.62c-39.78,5.16 -82.22,341.94 -111.47,368.37 -29.25,26.44 -383.76,48.62 -391.32,86.23 -7.56,37.61 314.73,176.88 331.76,211.31 17.02,34.42 -74.44,362.73 -39.33,380.82 35.1,18.09 276.98,-232.7 316.76,-237.86 39.78,-5.16 337.86,175.11 367.12,148.67 29.25,-26.43 -142.88,-320.3 -135.32,-357.91 7.56,-37.61 282.24,-254.66 265.21,-289.08 -17.02,-34.43 -364.9,34.77 -400.01,16.69 -35.11,-18.09 -163.63,-332.4 -203.4,-327.24z"/>
  <path id="path3193_2" class="fil5" d="M2678.94 2991.92c-39.77,5.16 -82.21,341.94 -111.46,368.38 -29.26,26.43 -383.77,48.61 -391.32,86.23 -7.56,37.61 314.73,176.88 331.75,211.3 17.03,34.43 -74.44,362.74 -39.33,380.83 35.11,18.08 276.99,-232.7 316.77,-237.86 39.78,-5.16 337.86,175.11 367.11,148.67 29.26,-26.44 -142.87,-320.3 -135.31,-357.91 7.56,-37.62 283.06,-254.76 266.03,-289.18 -17.02,-34.42 -365.72,34.87 -400.83,16.78 -35.11,-18.08 -163.63,-332.4 -203.41,-327.24z"/>
  <path id="path2410" class="fil6" d="M3303.97 635.35c-166.83,1.54 -346.64,28.18 -528.34,82.69 -646.02,193.78 -1075.67,666.43 -959.11,1055.02 116.56,388.59 735.59,546.02 1381.62,352.23 646.03,-193.79 1075.68,-666.44 959.12,-1055.03 -83.78,-279.29 -426.93,-438.82 -853.29,-434.91zm-1730.54 1274.14c-222.13,10.52 -486.88,212.02 -657.32,524.2 -218.16,399.6 -199.84,830.38 40.51,961.6 240.36,131.22 611.97,-86.58 830.13,-486.17 218.17,-399.59 200.67,-830.37 -39.68,-961.6 -52.58,-28.7 -111.44,-40.98 -173.64,-38.03z"/>
  <path id="path3205" class="fil7" d="M4430.05 6917.87c121.99,-1.93 254.61,-19.31 389.91,-53.76 481.05,-122.47 816.91,-414.38 749.73,-651.58 -67.18,-237.19 -512.23,-329.88 -993.29,-207.4 -481.05,122.48 -816.9,414.38 -749.72,651.58 48.28,170.48 291.64,266.1 603.37,261.16zm1323.59 -790.3c162.81,-7.77 365.61,-132.7 504.61,-324.82 177.93,-245.92 184.49,-509.53 14.94,-588.43 -169.56,-78.91 -451.2,56.64 -629.13,302.56 -177.92,245.92 -185.1,509.54 -15.54,588.44 37.09,17.26 79.53,24.42 125.12,22.25z"/>
  <path id="path3217" class="fil8" d="M6594.33 3031.43c183.17,670.42 -41.33,1316.03 -501.31,1441.71 -459.99,125.69 -981.59,-316.07 -1164.78,-986.48 -183.17,-670.4 41.32,-1316.02 501.31,-1441.71 459.98,-125.68 981.59,316.08 1164.77,986.48l0.01 0z"/>
 </g>
</svg>
